<svg width="101" height="33" viewBox="0 0 101 33" fill="none" xmlns="http://www.w3.org/2000/svg">
<path d="M37.1348 21.8236C36.7164 22.5345 36.14 23.1006 35.4087 23.5185C34.6774 23.9365 33.7879 24.1471 32.7404 24.1471C31.403 24.1471 30.3588 23.8115 29.6176 23.1401C28.8731 22.4753 28.5009 21.4056 28.5009 19.9444V9.54768C28.5009 9.37325 28.3625 9.23502 28.1879 9.23502H23.8792C23.7046 9.23502 23.5662 9.37325 23.5662 9.54768V20.5104C23.5662 21.2411 23.7309 21.794 24.0538 22.1692C24.3766 22.5477 24.7917 22.7352 25.2957 22.7352C25.7305 22.7352 26.1192 22.6266 26.4552 22.4028C26.7912 22.1856 27.1206 21.8861 27.4566 21.5109L27.7696 21.8236C27.3512 22.5345 26.7747 23.1006 26.0434 23.5185C25.3121 23.9365 24.4227 24.1471 23.3752 24.1471C22.0378 24.1471 20.9935 23.8115 20.2523 23.1401C19.5079 22.4753 19.1356 21.4056 19.1356 19.9444V8.29376C19.1982 8.26743 19.2575 8.23781 19.3135 8.20161C20.1206 8.09629 20.9869 7.82313 21.7512 7.21427C22.6142 6.52313 23.2204 5.51604 23.5596 4.20288H23.6848L23.6025 8.27072C23.5992 8.44844 23.7375 8.59325 23.9154 8.59325H27.6905C27.7267 8.59325 27.7597 8.58996 27.7959 8.5768C28.1484 8.4649 28.4712 8.32009 28.7578 8.15553C29.2256 7.88566 29.69 7.52034 30.1479 7.06617C30.1512 7.06288 30.1611 7.053 30.1644 7.04971L32.7272 4.20617H33.0402L32.9578 8.27401C32.9545 8.45173 33.0929 8.59654 33.2708 8.59654H36.476V9.21857H36.2157C36.1927 9.21857 36.1729 9.22186 36.1498 9.22186H33.2279C33.0534 9.22186 32.915 9.36009 32.915 9.53452V20.5104C32.915 21.2411 33.0797 21.794 33.4025 22.1692C33.7254 22.5477 34.1404 22.7352 34.6411 22.7352C35.0825 22.7352 35.468 22.6266 35.804 22.4028C36.14 22.1856 36.4694 21.8861 36.8054 21.5109L37.1183 21.8236H37.1348Z" fill="#014B3D"/>
<path d="M42.8501 15.1788C43.2289 15.1953 43.5814 15.2019 43.9108 15.1788H42.8501Z" fill="#014B3D"/>
<path d="M50.4596 15.1591C50.4826 14.9189 50.4892 14.6852 50.4892 14.4548C50.4892 13.2437 50.2323 12.1609 49.7217 11.2098C49.2078 10.2553 48.4699 9.50825 47.508 8.94875C46.5461 8.39584 45.3833 8.12268 44.0261 8.12268C42.6689 8.12268 41.4896 8.43534 40.307 9.06394C39.1245 9.69255 38.1593 10.6075 37.4049 11.8087C36.6506 13.01 36.275 14.4713 36.275 16.1827C36.275 17.8941 36.5978 19.2566 37.2468 20.448C37.8957 21.6427 38.795 22.5576 39.9447 23.1928C41.0943 23.8345 42.412 24.1505 43.8977 24.1505C45.3833 24.1505 46.6977 23.8247 47.7749 23.1796C48.8553 22.5313 49.7184 21.6295 50.3641 20.4776L50.285 20.2275C49.613 20.7903 49.0266 21.093 48.3217 21.2872C47.4652 21.5242 46.701 21.6163 45.6534 21.6163C44.1019 21.6163 42.9951 20.9976 42.2111 20.0037C41.4633 19.0591 41.0416 18.1573 40.9856 16.13C40.9823 15.9556 41.124 15.8075 41.3019 15.8075H50.0939C50.2455 15.8075 50.3706 15.7022 50.4036 15.5541C50.4299 15.4323 50.4497 15.3006 50.4596 15.1624V15.1591ZM41.3711 11.2394C41.6115 10.3113 41.9475 9.66293 42.3725 9.29761C42.8007 8.9323 43.3179 8.748 43.924 8.748C44.9913 8.748 45.716 9.24825 46.0916 10.252C46.2266 10.6141 46.3254 11.0617 46.3847 11.5882L46.3584 11.5487C46.3584 11.5487 46.5725 14.9551 42.0365 15.1756C41.7993 15.192 41.5489 15.192 41.2887 15.1855C41.1174 15.1822 40.9791 15.0341 40.9823 14.8629C41.012 13.3194 41.1405 12.1115 41.3711 11.2361V11.2394Z" fill="#014B3D"/>
<path d="M67.1247 23.2652C66.3308 23.0545 65.9355 22.5477 65.9355 21.7282V12.6974C65.9355 11.1505 65.5599 10.0019 64.8188 9.24824C64.0776 8.49457 63.0136 8.11938 61.6333 8.11938C60.734 8.11938 59.8248 8.33002 58.9058 8.74799C58.2832 9.03103 57.7034 9.36343 57.1698 9.75179C56.8305 9.99862 56.3528 9.80444 56.2968 9.38976L56.1716 8.46495L55.8916 8.18521C55.5227 8.41229 55.1241 8.62622 54.7091 8.8204C53.2432 9.51153 51.774 9.8933 50.5024 9.96242H50.4893V10.2817L50.9603 10.4067C51.3787 10.489 51.662 10.6404 51.8102 10.8642C51.9551 11.0814 52.0276 11.4204 52.0276 11.8844V21.6986C52.0276 22.5115 51.662 23.0282 50.9274 23.2356L50.486 23.3606V23.6733H57.8615V23.3606L57.5782 23.2652C56.8469 23.0545 56.478 22.5477 56.478 21.7282V11.3282C56.478 11.1637 56.5538 11.0024 56.6822 10.8971C57.0248 10.6239 57.3575 10.3968 57.6804 10.2191C59.3933 9.26799 61.4983 10.5219 61.4983 12.4801V21.6986C61.4983 22.495 61.1326 23.0052 60.398 23.2356L59.9928 23.3606V23.6733H67.4014V23.3606L67.1181 23.2652H67.1247Z" fill="#014B3D"/>
<path d="M94.9239 23.9398C93.3723 24.292 91.9526 24.2788 90.6646 23.897C89.3766 23.5153 88.2829 22.8044 87.3935 21.7644C86.5008 20.7244 85.8749 19.4079 85.5092 17.8183C85.1469 16.2287 85.1633 14.7773 85.5619 13.4641C85.9605 12.151 86.6622 11.0485 87.6702 10.1533C88.6782 9.25808 89.9069 8.64593 91.3563 8.31682C92.8057 7.9877 94.1695 8.00087 95.4542 8.36289C96.7389 8.72492 97.8458 9.40947 98.7747 10.4198C99.7037 11.4302 100.353 12.7401 100.718 14.3495C101.087 15.9588 101.094 17.4234 100.738 18.7365C100.382 20.0497 99.7135 21.1588 98.7286 22.0573C97.7437 22.9591 96.4754 23.5844 94.9239 23.9398ZM94.7822 23.3277C95.4971 23.1664 96.0208 22.8307 96.3568 22.3239C96.6928 21.817 96.8378 21.0239 96.7949 19.9411C96.7521 18.8583 96.5117 17.3674 96.0801 15.4717C95.642 13.5563 95.2072 12.1016 94.7756 11.1044C94.3441 10.1105 93.8698 9.45555 93.346 9.14618C92.8255 8.83681 92.2062 8.76441 91.4914 8.92567C90.7766 9.09023 90.2462 9.42264 89.9003 9.93276C89.5544 10.4396 89.4029 11.236 89.449 12.3188C89.4918 13.4016 89.7323 14.9024 90.1704 16.8178C90.602 18.7135 91.0368 20.1583 91.4683 21.1555C91.8999 22.1494 92.3808 22.8011 92.9145 23.1105C93.4448 23.4198 94.0674 23.4889 94.7822 23.3277Z" fill="#014B3D"/>
<path d="M82.5545 10.173C82.5545 10.173 82.5381 10.1499 82.5249 10.1401C82.3338 9.80765 81.9517 9.37651 81.3291 8.82031C78.5653 6.37171 75.314 8.0074 73.8514 8.99145C73.5879 9.16917 73.2255 9.03753 73.1333 8.72816L73.0575 8.46487L72.7413 8.15221C72.7413 8.15221 72.7347 8.1555 72.7281 8.1555C72.3427 8.39576 71.9309 8.61626 71.4961 8.8236C70.0895 9.4917 68.6796 9.86689 67.4443 9.95575L67.4048 9.96563V10.2816L67.8429 10.377C68.2613 10.4626 68.5544 10.6173 68.7093 10.8477C68.8608 11.0813 68.9431 11.4236 68.9431 11.8876V30.5846C68.9431 31.3843 68.5577 31.8846 67.7803 32.0952L67.4048 32.2203V32.5362H75.0307V32.2203L74.4378 32.0656C73.6834 31.8549 73.3046 31.3317 73.3046 30.4957V24.1043C73.3046 23.7851 73.6175 23.558 73.9206 23.6567C74.9286 23.9859 76.1145 24.1504 77.4816 24.1504C79.5964 24.1504 81.2303 23.4264 82.3931 21.9848C83.5559 20.5433 84.1324 18.5654 84.1324 16.0575C84.1324 13.5497 83.6054 11.5487 82.5512 10.1763L82.5545 10.173ZM73.6241 21.8466C73.5516 21.761 73.5154 21.6524 73.5154 21.5405V10.4001C73.5154 10.3013 73.5418 10.2059 73.6044 10.1269C73.8712 9.76158 74.8232 8.92563 77.2312 10.6271C77.8867 11.0879 78.4138 11.6112 78.8256 12.1444C80.0773 13.7406 80.2915 15.7876 80.3442 17.815C80.4397 21.5208 76.8194 25.7795 73.6241 21.8466Z" fill="#014B3D"/>
<path d="M7.80052 0.00329121C7.80052 0.00329121 7.26028 1.57974 6.69039 3.19898C6.42686 3.94278 6.35439 4.82809 6.36427 5.66075C6.38404 7.0891 6.70027 8.49441 7.20757 9.82732L10.7488 19.0754C10.7488 19.0754 12.4156 22.2941 10.5347 23.9364H18.0585C18.0585 23.9364 17.6302 24.1964 14.2966 16.245C10.9629 8.29694 7.80052 0 7.80052 0V0.00329121Z" fill="#014B3D"/>
<path d="M2.52331 21.2476C3.9169 21.2476 5.04662 20.1189 5.04662 18.7266C5.04662 17.3343 3.9169 16.2056 2.52331 16.2056C1.12972 16.2056 0 17.3343 0 18.7266C0 20.1189 1.12972 21.2476 2.52331 21.2476Z" fill="#D26C2B"/>
<path d="M77.2081 32.5296C77.7502 32.5296 78.1897 32.0905 78.1897 31.5489C78.1897 31.0072 77.7502 30.5681 77.2081 30.5681C76.6659 30.5681 76.2264 31.0072 76.2264 31.5489C76.2264 32.0905 76.6659 32.5296 77.2081 32.5296Z" fill="#014B3D"/>
<path d="M83.5625 30.7655C83.5625 31.8713 82.5117 32.3749 81.5333 32.3749C80.7362 32.3749 79.9423 32.0095 79.402 31.4007L79.29 31.2756L79.8929 30.7392L80.0082 30.8642C80.3705 31.2657 80.97 31.5225 81.5333 31.5225C81.9945 31.5225 82.6764 31.3217 82.6764 30.7655C82.6764 30.2093 82.0143 30.1237 81.2995 30.0776C80.5188 29.9756 79.4646 29.8407 79.4646 28.6526C79.4646 27.6916 80.298 27.0465 81.5333 27.0465C82.2152 27.0465 82.9037 27.3295 83.4802 27.8528L83.5988 27.9614L83.0849 28.5835L82.9531 28.4683C82.4755 28.0437 81.9056 27.8956 81.5333 27.8956C81.0491 27.8956 80.3343 28.1359 80.3343 28.6526C80.3343 29.0442 80.8712 29.1495 81.6355 29.2549C82.1592 29.3174 83.5625 29.4819 83.5625 30.7655Z" fill="#014B3D"/>
<path d="M88.4806 27.1091V32.3091H87.5978V29.9494H85.7399V32.3091H84.8636V27.1091H85.7399V29.1068H87.5978V27.1091H88.4806Z" fill="#014B3D"/>
<path d="M92.2261 27.0465C90.9019 27.0465 89.7852 28.2642 89.7852 29.709C89.7852 31.1538 90.9019 32.3749 92.2261 32.3749C93.5504 32.3749 94.6671 31.1769 94.6671 29.709C94.6671 28.2412 93.5734 27.0465 92.2261 27.0465ZM92.2261 31.5225C91.3795 31.5225 90.6647 30.6931 90.6647 29.709C90.6647 28.725 91.3795 27.8956 92.2261 27.8956C93.0727 27.8956 93.7974 28.7283 93.7974 29.709C93.7974 30.6898 93.0793 31.5225 92.2261 31.5225Z" fill="#014B3D"/>
<path d="M98.1259 27.1091H95.9716V32.3091H96.8412V30.3114H98.1259C99.0153 30.3114 99.7368 29.5906 99.7368 28.7086C99.7368 27.8266 99.0153 27.1091 98.1259 27.1091ZM98.8671 28.7119C98.8671 29.1167 98.5311 29.4524 98.1259 29.4656H96.8412V27.9615H98.1226C98.5311 27.9714 98.8671 28.3104 98.8671 28.7119Z" fill="#014B3D"/>
<path d="M22.9305 1.64563C22.9042 4.00537 22.3244 5.66081 21.2044 6.556C19.867 7.62891 18.0355 7.37549 17.3272 7.24714C17.1691 5.76613 17.4754 4.55499 18.2265 3.64993C19.5442 2.07348 21.9621 1.72462 22.9305 1.64563Z" fill="#26AD7F"/>
</svg>
