<svg width="183" height="137" viewBox="0 0 183 137" fill="none" xmlns="http://www.w3.org/2000/svg">
<path d="M147.112 127.976C145.345 131.487 141.067 132.902 137.558 131.135L37.1751 80.6299C33.6633 78.8632 32.2499 74.5868 34.0166 71.0749L66.7966 5.9194C68.5633 2.40871 72.8409 0.994218 76.3527 2.76092L176.735 53.2648C180.245 55.0315 181.66 59.3102 179.894 62.8208L147.112 127.976Z" fill="#D26C2B"/>
<path d="M147.112 127.976C145.345 131.487 141.067 132.902 137.558 131.135L37.1751 80.6299C33.6633 78.8632 32.2499 74.5868 34.0166 71.0749L66.7966 5.9194C68.5633 2.40871 72.8409 0.994218 76.3527 2.76092L176.735 53.2648C180.245 55.0315 181.66 59.3102 179.894 62.8208L147.112 127.976Z" stroke="white" stroke-width="3" stroke-miterlimit="10"/>
<path d="M62.9206 13.5862L54.1263 31.0671L167.222 87.9629L176.016 70.482L62.9206 13.5862Z" fill="#F1FBFD" stroke="white" stroke-width="3" stroke-miterlimit="10"/>
<path d="M128.605 127.883C128.605 131.812 125.419 135 121.489 135H9.1168C5.18688 135 2 131.812 2 127.883V54.9449C2 51.015 5.18688 47.8281 9.1168 47.8281H121.489C125.419 47.8281 128.605 51.015 128.605 54.9449V127.883Z" fill="#1BAB87"/>
<path d="M128.605 127.883C128.605 131.812 125.419 135 121.489 135H9.1168C5.18688 135 2 131.812 2 127.883V54.9449C2 51.015 5.18688 47.8281 9.1168 47.8281H121.489C125.419 47.8281 128.605 51.015 128.605 54.9449V127.883Z" stroke="white" stroke-width="3" stroke-miterlimit="10"/>
<path d="M119.412 58.8H69.0096V70.0661H119.412V58.8Z" fill="#F1FBFD" stroke="white" stroke-width="3" stroke-miterlimit="10"/>
<path d="M11.1926 114.54H119.414" stroke="white" stroke-width="3" stroke-miterlimit="10"/>
</svg>
