<svg width="555" height="797" viewBox="0 0 555 797" fill="none" xmlns="http://www.w3.org/2000/svg">
<path d="M537.028 339.007C536.218 360.102 539.309 380.792 548.068 399.884C559.939 425.794 553.161 448.892 539.01 470.584C527.395 488.397 513.883 504.996 500.925 521.914C497.047 526.986 492.997 531.886 493.317 538.534C495.278 578.487 479.272 614.135 464.162 649.208C454.231 672.241 454.699 692.676 462.734 714.985C471.408 739.127 471.813 763.013 456.255 785.003C446.26 799.13 435.455 800.557 422.071 789.243C405.745 775.414 391.104 759.881 379.297 741.982C375.184 735.76 371.326 733.992 363.888 736.634C320.88 751.869 280.558 748.801 240.022 724.872C198.57 700.432 155.669 678.442 114.814 652.787C87.4488 635.592 66.7547 613.645 54.3936 583.686C37.962 543.819 16.9695 505.869 4.60849 464.298C2.6904 457.82 -0.0588608 451.577 0.15426 444.631C0.367382 437.94 2.37072 432.102 9.21192 429.672C16.181 427.222 22.9369 430.312 25.1534 436.15C37.0029 467.068 63.3447 480.897 90.1767 495.514C108.441 505.465 119.119 523.534 127.409 542.412C134.314 558.116 140.9 573.969 147.592 589.78C154.454 605.974 166.112 615.094 184.163 612.345C215.385 607.572 237.316 621.742 254.856 645.521C274.953 672.795 304.492 679.87 335.629 683.151C345.176 684.153 347.883 679.486 343.407 670.75C327.018 638.788 311.588 606.421 301.764 571.69C300.868 568.536 298.013 565.127 295.114 563.465C268.261 548.08 247.162 525.345 222.504 507.127C193.477 485.691 192.283 461.826 218.305 436.875C229.302 426.327 229.579 417.399 220.927 405.85C210.931 392.533 202.215 378.342 195.927 362.787C191.559 351.963 189.704 340.84 190.834 329.206C192.475 312.5 199.188 304.553 215.854 302.997C226.894 301.974 229.366 297.67 225.786 287.89C222.163 277.982 217.922 268.755 208.736 262.512C200.574 256.951 192.688 250.985 184.888 244.933C160.379 225.884 155.115 199.803 170.481 173.104C174.615 165.902 179.283 158.977 183.929 152.095C193.668 137.712 201.895 122.988 200.659 104.557C200.105 96.1403 203.238 88.2563 207.862 81.0543C222.994 57.4665 237.976 33.7934 253.172 10.2482C261.164 -2.15299 271.799 -2.57916 278.278 10.5891C292.237 39.0138 305.472 67.8647 317.684 97.0778C325.804 116.489 317.002 136.135 314.466 155.461C313.123 165.753 315.275 172.529 324.013 177.728C337.312 185.633 340.275 197.907 335.799 211.522C326.336 240.416 319.858 269.118 324.525 300.121C328.702 327.842 319.644 355.969 324.376 384.116C326.379 395.942 328.617 407.491 332.453 418.912C343.258 450.98 347.329 482.857 326.4 513.029C319.453 523.065 321.072 534.145 324.29 544.607C332.517 571.455 341.958 597.898 353.168 623.681C356.706 631.842 359.285 633.653 365.21 625.023C372.541 614.348 381.428 604.738 389.42 594.51C397.625 584.027 399.608 574.033 389.996 562.314C376.825 546.227 377.784 528.307 389.506 510.642C403.188 490.038 421.708 473.95 438.928 456.691C447.432 448.168 454.763 438.877 461.221 428.735C469.128 416.312 471.195 403.293 464.737 390.21C455.978 372.461 460.262 357.268 470.705 342.033C479.89 328.631 489.182 315.526 503.675 307.323C524.369 295.625 536.772 302.805 537.049 326.521C537.092 330.676 537.049 334.852 537.049 339.007H537.028Z" fill="#0E493E"/>
</svg>
