<svg width="315" height="232" viewBox="0 0 315 232" fill="none" xmlns="http://www.w3.org/2000/svg">
<path d="M236.569 110.353C256.048 115.382 272.714 116.405 287.697 124.033C302.871 131.768 312.184 143.189 314.592 159.83C317.576 180.328 301.485 192.879 282.475 184.718C267.216 178.176 252.553 170.228 237.251 163.794C230.239 160.853 221.629 158.083 215.427 165.285C209.161 172.551 214.17 179.966 217.196 187.104C219.796 193.262 224.932 198.334 225.06 205.557C225.188 212.29 226.509 219.492 219.178 223.626C212.124 227.589 205.41 226.289 198.612 222.156C189.32 216.488 184.141 207.475 178.003 199.101C169.116 186.976 163.362 172.636 152.002 162.259C148.805 159.319 145.118 156.506 140.963 159.468C136.615 162.558 138.576 166.883 140.664 170.633C146.013 180.2 151.192 189.874 152.428 200.976C153.75 212.716 150.596 222.646 139.598 228.804C128.942 234.77 119.245 231.872 110.806 224.606C97.571 213.206 90.7085 197.609 88.5346 181.053C82.9722 138.608 59.6993 112.228 19.5046 99.6567C17.0324 98.8896 14.7307 97.5685 12.2798 96.6949C5.52389 94.2871 -1.01894 91.1123 1.21884 82.4826C3.41398 74.0233 11.2782 73.5759 17.8636 74.9609C37.8544 79.1373 56.9288 78.0931 75.6834 69.2503C91.1347 61.963 102.089 49.1783 115.196 39.0571C132.821 25.4627 149.146 10.0784 170.906 2.49283C184.375 -2.1949 194.648 1.06511 202.064 12.3796C209.886 24.312 206.561 35.2856 196.502 44.4054C185.931 53.9726 172.632 59.0439 160.42 65.9476C156.52 68.1423 150.425 70.188 151.746 75.6002C153.345 82.1843 160.143 80.5649 165.024 80.2453C183.374 78.9881 198.377 69.2504 213.53 60.1306C226.509 52.3106 239.574 45.1085 255.068 43.3187C275.506 40.9535 289.998 48.7096 293.131 64.4349C296.498 81.332 286.631 94.5002 266.427 100.232C257.732 102.704 247.907 101.617 236.547 110.375L236.569 110.353Z" fill="#BD7039"/>
</svg>
